<mxfile host="app.diagrams.net" modified="2024-02-10T14:13:11.735Z" agent="Mozilla/5.0 (Windows NT 10.0; Win64; x64; rv:109.0) Gecko/20100101 Firefox/115.0" version="23.1.2" etag="Olz-fOXGguvCl1tVzyzL" type="github">
  <diagram name="Page-1" id="Q1QoSPNfhhzeWOEesASz">
    <mxGraphModel>
      <root>
        <mxCell id="0" />
        <mxCell id="1" parent="0" />
      </root>
    </mxGraphModel>
  </diagram>
</mxfile>
